<svg width="32" height="32" fill="none" xmlns="http://www.w3.org/2000/svg"><path d="M25.714 10.4c.7-1.3.1-2.9-1.2-3.6-.8-.4-1.3-1.1-1.5-1.9-.2-1.3-1.4-2.3-2.8-2.3h-.8c-.7 0-1.4-.3-2-.8-.5-.5-1.3-.8-2-.8s-1.4.3-2 .8c-.4.6-1.1.8-1.9.8h-.8c-1.3 0-2.5.9-2.7 2.2-.2.9-.7 1.6-1.5 2-1.4.7-1.9 2.3-1.2 3.6.4.8.4 1.6 0 2.4-.7 1.3-.1 2.9 1.2 3.6.8.4 1.3 1.1 1.5 1.9.1.4.2.7.4 1l-2.4 9 6.5 1.8 2.2-8.2c.3.1.5.1.8.1.3 0 .6-.1.8-.1l2.2 8.2 6.5-1.8-2.4-9c.2-.3.3-.6.4-1 .2-.8.7-1.5 1.5-1.9 1.4-.7 1.9-2.3 1.2-3.6-.4-.8-.4-1.7 0-2.4zm-14.6 17.3l-2.7-.7 1.7-6.4c.2 0 .4.1.6.1h.8c.5 0 .9.1 1.3.3l-1.7 6.7zm8.8 0l-1.8-6.8c.4-.2.9-.3 1.3-.3h.8c.2 0 .4 0 .6-.1l1.7 6.4-2.6.8zm4-14c.2.3 0 .7-.3.9-1.3.7-2.3 1.9-2.5 3.4-.1.4-.4.6-.8.6h-.8c-1.2 0-2.4.5-3.3 1.3-.3.2-.6.2-.7.2-.1 0-.4 0-.6-.2-.9-.8-2.1-1.3-3.3-1.3h-.8c-.4 0-.8-.3-.8-.6-.3-1.4-1.2-2.7-2.5-3.4-.4-.2-.5-.6-.3-.9.7-1.3.7-2.9 0-4.2-.3-.4-.2-.8.2-.9 1.3-.7 2.3-1.9 2.5-3.4.1-.4.4-.6.9-.6h.8c1.2 0 2.4-.5 3.3-1.3.2-.2.5-.2.6-.2.1 0 .4 0 .6.2.9.8 2.1 1.3 3.3 1.3h.8c.4 0 .8.3.8.6.3 1.4 1.2 2.7 2.5 3.4.4.2.5.6.3.9-.5 1.3-.5 2.9.1 4.2z" fill="#626469"/><path d="M15.514 9.1c-1.4 0-2.5 1.1-2.5 2.5s1.1 2.5 2.5 2.5 2.5-1.1 2.5-2.5-1.1-2.5-2.5-2.5z" fill="#626469"/></svg>