<svg width="32" height="32" fill="none" xmlns="http://www.w3.org/2000/svg"><mask id="a" maskUnits="userSpaceOnUse" x="4" y="4" width="24" height="24"><path fill-rule="evenodd" clip-rule="evenodd" d="M16 4C9.376 4 4 9.376 4 16s5.376 12 12 12 12-5.376 12-12S22.624 4 16 4zm3.6 7.2c0-1.992-1.608-3.6-3.6-3.6a3.595 3.595 0 00-3.6 3.6c0 1.992 1.608 3.6 3.6 3.6s3.6-1.608 3.6-3.6zM8.2 20.8C9.4 23.2 12.4 25 16 25c3.34 0 6-1.2 7.8-4.2-.036-2.388-5.412-3.72-7.8-3.72-2.4 0-7.764 1.332-7.8 3.72z" fill="#fff"/></mask><g mask="url(#a)"><path fill-rule="evenodd" clip-rule="evenodd" d="M0 0h32v32H0V0z" fill="#1F2229"/></g></svg>