<svg width="38" height="38" fill="none" xmlns="http://www.w3.org/2000/svg"><path fill-rule="evenodd" clip-rule="evenodd" d="M24.423 14.41a.77.77 0 01-.77.77v-.001a.77.77 0 01-.77-.77V8.246a.77.77 0 00-.77-.77H10.46l5.919 2.537c1.055.45 1.882 1.705 1.882 2.854v14.634h3.851a.77.77 0 00.77-.77V20.57a.77.77 0 011.54 0v6.162a2.313 2.313 0 01-2.31 2.31h-3.851v2.311c0 .667-.279 1.234-.762 1.553-.267.176-.58.265-.908.265a2.12 2.12 0 01-.82-.174l-7.951-3.41c-1.055-.45-1.883-1.704-1.883-2.854V8.248a2.313 2.313 0 012.311-2.31h13.864a2.313 2.313 0 012.31 2.31v6.162zm-7.702-1.54c0-.54-.453-1.227-.95-1.44L7.558 7.91a.761.761 0 00-.08.338v18.485c0 .541.454 1.227.95 1.44l7.952 3.408c.147.062.246.057.272.04.026-.017.07-.106.07-.266V12.869z" fill="#626469"/><path fill-rule="evenodd" clip-rule="evenodd" d="M34.21 16.946l-4.621-4.622a.77.77 0 10-1.088 1.09l3.305 3.305h-9.694a.772.772 0 00-.77.77c0 .426.346.77.77.77h9.694L28.5 21.566a.77.77 0 001.091 1.09l4.621-4.622a.774.774 0 000-1.089l-.003.002z" fill="#626469"/></svg>