<svg width="88" height="33" fill="none" xmlns="http://www.w3.org/2000/svg"><mask id="a" maskUnits="userSpaceOnUse" x="0" y="0" width="88" height="33"><path fill-rule="evenodd" clip-rule="evenodd" d="M76.598.133c3.311-.473 6.34.323 8.403 2.264 1.888 1.775 2.84 4.29 2.612 6.898-.43 4.932-2.836 8.883-9.534 15.394l-10.962.358s7.636-6.9 10.508-10.271c1.86-2.184 2.649-4.543 1.885-6.114-.485-.996-1.572-1.492-2.912-1.418V.134zm-22.462 3.91v6.411l9.52-1.041v-6.7l-9.52 1.33zM46.382 33V5.128l6.533-.914V33h-6.533zM20.575 8.744v5.39l7.197-.788V7.738l-7.197 1.006zM14.663 33V9.57l4.983-.696V33h-4.983zM0 11.62v4.765l12.918-1.414V9.815L0 11.62zm4.122 5.055V33h4.73V16.194l-4.73.48zm16.453 6.958v-5.488l4.724-.404v5.636l-4.724.256zm0 3.955V33h7.196v-5.628l-7.196.216zm33.56-5.782v-6.53l6.241-.531v6.722l-6.24.34zm0 4.773V33h9.521v-6.705l-9.52.285zM29.675 33V7.473l5.677-.794V33h-5.677zm6.737-5.886V33h8.24v-6.134l-8.24.247zM88 33v-7.441l-22.235.55v6.89H88zM66.055 14.103C65.689 6.389 68.86 1.66 75.32.293l.004 7.242c-1.356.568-2.696 1.602-2.382 5.96l-6.887.608z" fill="#fff"/></mask><g mask="url(#a)"><path fill-rule="evenodd" clip-rule="evenodd" d="M0 0h88v33H0V0z" fill="#1F2229"/></g></svg>