<svg width="32" height="32" viewBox="0 0 32 32" fill="none" xmlns="http://www.w3.org/2000/svg">
<mask id="mask0" mask-type="alpha" maskUnits="userSpaceOnUse" x="4" y="4" width="24" height="24">
<path fill-rule="evenodd" clip-rule="evenodd" d="M16 4C9.376 4 4 9.376 4 16C4 22.624 9.376 28 16 28C22.624 28 28 22.624 28 16C28 9.376 22.624 4 16 4ZM19.6 11.2C19.6 9.208 17.992 7.6 16 7.6C14.008 7.6 12.4 9.208 12.4 11.2C12.4 13.192 14.008 14.8 16 14.8C17.992 14.8 19.6 13.192 19.6 11.2ZM8.2 20.8C9.4 23.2 12.4 25 16 25C19.3405 25 22 23.8 23.8 20.8C23.764 18.412 18.388 17.08 16 17.08C13.6 17.08 8.236 18.412 8.2 20.8Z" fill="white"/>
</mask>
<g mask="url(#mask0)">
<path fill-rule="evenodd" clip-rule="evenodd" d="M0 0H32V32H0V0Z" fill="#1F2229"/>
</g>
</svg>
